<svg width="17" height="16" viewBox="0 0 17 16" fill="none" xmlns="http://www.w3.org/2000/svg">
<path d="M0.792893 14.2929C0.402369 14.6834 0.402369 15.3166 0.792893 15.7071C1.18342 16.0976 1.81658 16.0976 2.20711 15.7071L0.792893 14.2929ZM16.5 1C16.5 0.447715 16.0523 0 15.5 0H6.5C5.94772 0 5.5 0.447715 5.5 1C5.5 1.55228 5.94772 2 6.5 2H14.5V10C14.5 10.5523 14.9477 11 15.5 11C16.0523 11 16.5 10.5523 16.5 10V1ZM2.20711 15.7071L16.2071 1.70711L14.7929 0.292893L0.792893 14.2929L2.20711 15.7071Z" fill="#00FFA3"/>
</svg>
