<svg width="145" height="145" viewBox="0 0 145 145" fill="none" xmlns="http://www.w3.org/2000/svg">
<g filter="url(#filter0_b_309_25)">
<circle cx="72.5" cy="72.5" r="72.5" fill="#00FFA3"/>
</g>
<circle cx="73" cy="128" r="3" fill="black"/>
<path d="M24.9377 62.2149C24.7488 62.9593 24.4115 63.5945 23.9258 64.1205C23.4324 64.6336 22.8193 64.9897 22.0865 65.1889C21.3459 65.375 20.5104 65.3501 19.5799 65.1139L16.9745 64.4526C15.5787 64.0983 14.6084 63.4338 14.0634 62.4591C13.5081 61.4818 13.4011 60.3211 13.7422 58.9771C14.0807 57.6434 14.6985 56.7052 15.5956 56.1625C16.485 55.6069 17.5345 55.4826 18.7441 55.7897L18.8062 55.8054L18.2944 57.8215L18.1704 57.79C17.7878 57.6929 17.4205 57.6877 17.0683 57.7744C16.7188 57.8508 16.4155 58.0269 16.1584 58.3028C15.8909 58.576 15.6955 58.9556 15.5722 59.4416C15.3885 60.1653 15.4664 60.7903 15.806 61.3167C16.1456 61.8431 16.698 62.2034 17.4631 62.3976L20.1305 63.0747C20.8852 63.2662 21.5477 63.2143 22.1179 62.9188C22.6778 62.6207 23.0522 62.0995 23.2411 61.3551C23.4301 60.6107 23.3714 60.0181 23.0651 59.5772C22.7589 59.1363 22.3059 58.8397 21.7062 58.6875L21.5512 58.6481L20.8977 61.2225L19.1608 60.7816L20.326 56.1912L25.8779 57.6004L25.3977 59.4924L24.3586 59.2287L24.2878 59.5078C24.4452 59.6248 24.6011 59.7909 24.7555 60.0062C24.9126 60.2112 25.0177 60.4909 25.0707 60.8456C25.1238 61.2002 25.0794 61.6566 24.9377 62.2149Z" fill="black"/>
<path d="M30.307 48.4419C29.8944 49.1149 29.3883 49.6241 28.7886 49.9696C28.1854 50.3005 27.5354 50.4525 26.8387 50.4257C26.1384 50.3843 25.4336 50.1461 24.7243 49.7113L24.5606 49.6109C23.8513 49.1761 23.3239 48.6588 22.9784 48.0591C22.6238 47.4539 22.4616 46.8102 22.4919 46.1281C22.5131 45.4405 22.73 44.7602 23.1425 44.0873C23.5495 43.4234 24.0536 42.9379 24.6547 42.6308C25.2467 42.3182 25.8901 42.1871 26.5848 42.2377C27.2704 42.2826 27.9588 42.5169 28.6499 42.9406L29.2364 43.3002L26.2176 48.2245C26.6925 48.4907 27.1758 48.5492 27.6675 48.4003C28.1592 48.2513 28.55 47.9404 28.8399 47.4675C29.1354 46.9855 29.2483 46.5667 29.1785 46.2112C29.1087 45.8556 28.9827 45.5407 28.8006 45.2663L30.3985 44.3129C30.5569 44.5852 30.7018 44.9305 30.8332 45.3488C30.961 45.7525 31.0023 46.2158 30.9571 46.7385C30.9028 47.2557 30.6861 47.8235 30.307 48.4419ZM24.9437 47.4248L26.8838 44.2602C26.4705 44.0568 26.0592 44.0236 25.6499 44.1606C25.2462 44.2884 24.9078 44.5752 24.6346 45.0208C24.3503 45.4846 24.2427 45.9253 24.3119 46.3431C24.3811 46.7609 24.5917 47.1214 24.9437 47.4248Z" fill="black"/>
<path d="M38.9377 36.8908C38.5548 37.2465 38.1333 37.4197 37.6732 37.4103C37.2137 37.3858 36.7989 37.1743 36.4286 36.7758L33.3794 33.4936L31.9259 34.8439L30.7933 33.6248L32.2469 32.2745L30.5698 30.4693L32.0468 29.0971L33.7239 30.9023L35.3181 29.4213L36.4506 30.6404L34.8564 32.1214L37.666 35.1458C37.8838 35.3802 38.1021 35.3958 38.3209 35.1925L39.4463 34.1471L40.5788 35.3662L38.9377 36.8908Z" fill="black"/>
<path d="M59.4004 26.1172C58.5729 26.3656 57.7979 26.4368 57.0756 26.3307C56.3532 26.2246 55.7305 25.9493 55.2073 25.505C54.6841 25.0607 54.3059 24.4503 54.0728 23.6739L53.944 23.2448L55.9362 22.6467L56.065 23.0758C56.2582 23.7194 56.6031 24.1449 57.0997 24.3522C57.5932 24.5493 58.1822 24.545 58.8667 24.3395C59.5614 24.131 60.0359 23.8382 60.2902 23.4611C60.5548 23.081 60.6226 22.6764 60.4938 22.2473C60.4048 21.951 60.2459 21.737 60.017 21.6053C59.7984 21.4705 59.5087 21.3959 59.1481 21.3817C58.7946 21.3542 58.3726 21.3584 57.8822 21.3942L57.5067 21.4234C56.7221 21.4808 56.0274 21.4667 55.4225 21.381C54.8248 21.282 54.3216 21.0711 53.9128 20.7483C53.5143 20.4225 53.2169 19.9327 53.0206 19.2788C52.8243 18.625 52.8104 18.0222 52.9788 17.4705C53.1544 16.9055 53.4864 16.416 53.9747 16.0021C54.4701 15.5749 55.1009 15.2463 55.8671 15.0163C56.6333 14.7863 57.3526 14.7151 58.0249 14.8028C58.7043 14.8773 59.2908 15.1244 59.7844 15.5442C60.2851 15.9507 60.652 16.5422 60.8851 17.3186L61.0231 17.7784L59.031 18.3765L58.8929 17.9167C58.7702 17.5081 58.5904 17.2057 58.3533 17.0096C58.1234 16.8002 57.8434 16.6838 57.5134 16.6604C57.1803 16.6267 56.8095 16.6712 56.4008 16.7939C55.7878 16.9779 55.3685 17.2319 55.1428 17.5558C54.9242 17.8665 54.8747 18.221 54.9943 18.6194C55.0741 18.8851 55.208 19.0899 55.396 19.2339C55.5942 19.3749 55.8497 19.4652 56.1623 19.505C56.475 19.5448 56.8596 19.5462 57.3163 19.5094L57.6918 19.4802C58.5071 19.4136 59.234 19.4236 59.8726 19.5104C60.5213 19.594 61.067 19.7977 61.5094 20.1215C61.9519 20.4453 62.2712 20.9341 62.4675 21.5879C62.6638 22.2417 62.6686 22.8696 62.4817 23.4714C62.302 24.0599 61.9487 24.5892 61.4216 25.0593C60.9016 25.5161 60.2279 25.8687 59.4004 26.1172Z" fill="black"/>
<path d="M83.574 25.6097C83.0253 25.4736 82.5566 25.2585 82.168 24.9643C81.782 24.6598 81.5045 24.2943 81.3355 23.8677C81.1794 23.4334 81.1668 22.9522 81.2978 22.4242C81.4287 21.8962 81.662 21.487 81.9978 21.1966C82.3465 20.8984 82.7652 20.7165 83.2541 20.6509C83.7558 20.5775 84.2966 20.6127 84.8763 20.7565L86.9884 21.2802L87.0962 20.8453C87.186 20.483 87.1453 20.1597 86.974 19.8754C86.8053 19.5808 86.4725 19.3719 85.9755 19.2487C85.4889 19.128 85.0983 19.1521 84.8037 19.3208C84.5117 19.4792 84.2858 19.7254 84.126 20.0594L82.4748 19.0071C82.6966 18.6444 82.9818 18.336 83.3306 18.0818C83.6923 17.8198 84.1253 17.647 84.6296 17.5632C85.1468 17.4717 85.7368 17.5081 86.3994 17.6724C87.414 17.9239 88.1534 18.3765 88.6178 19.0302C89.0821 19.6838 89.1949 20.492 88.9562 21.4549L88.2438 24.3279C88.1668 24.6385 88.2732 24.8297 88.5631 24.9016L89.1843 25.0556L88.7838 26.6707L87.4793 26.3472C87.0962 26.2523 86.8036 26.0808 86.6013 25.8328C86.399 25.5849 86.3364 25.3056 86.4134 24.995L86.4173 24.9794L86.1222 24.9063C86.05 25.0203 85.9158 25.1628 85.7195 25.3339C85.5257 25.4947 85.2543 25.6142 84.9052 25.6925C84.5561 25.7708 84.1124 25.7432 83.574 25.6097ZM84.3085 24.1104C84.8572 24.2464 85.3396 24.2067 85.7557 23.9912C86.1847 23.7679 86.4621 23.4026 86.5879 22.8953L86.6264 22.74L84.6541 22.2509C84.2918 22.1611 83.9878 22.1681 83.7422 22.2721C83.4967 22.376 83.3392 22.5678 83.2699 22.8473C83.2006 23.1268 83.2528 23.3816 83.4266 23.6115C83.6004 23.8414 83.8943 24.0077 84.3085 24.1104Z" fill="black"/>
<path d="M94.2312 29.5409L98.0746 22.5976L99.8104 23.5585L99.3764 24.3424L99.6284 24.4819C99.886 24.2587 100.168 24.1464 100.473 24.1449C100.788 24.1486 101.104 24.2382 101.422 24.4138L102.262 24.8788L101.394 26.4466L100.526 25.9662C100.078 25.7182 99.6421 25.6355 99.2185 25.718C98.8 25.7912 98.4539 26.075 98.1801 26.5697L95.995 30.5172L94.2312 29.5409Z" fill="black"/>
<path d="M106.158 37.5535C105.775 37.1978 105.571 36.7902 105.547 36.3307C105.537 35.8706 105.718 35.4413 106.088 35.0428L109.137 31.7606L107.684 30.4102L108.816 29.1911L110.27 30.5415L111.947 28.7362L113.424 30.1084L111.747 31.9136L113.341 33.3946L112.208 34.6137L110.614 33.1327L107.805 36.157C107.587 36.3915 107.587 36.6103 107.806 36.8136L108.931 37.859L107.799 39.0781L106.158 37.5535Z" fill="black"/>
<path d="M114.644 47.5172C114.231 46.8443 114.007 46.1622 113.971 45.471C113.95 44.7834 114.109 44.1352 114.449 43.5264C114.804 42.9211 115.336 42.4011 116.045 41.9662L116.209 41.8659C116.918 41.431 117.618 41.1957 118.309 41.1598C119.01 41.1184 119.657 41.2659 120.251 41.6023C120.854 41.9331 121.362 42.435 121.775 43.108C122.182 43.7718 122.386 44.4413 122.387 45.1163C122.397 45.7858 122.221 46.4186 121.861 47.0148C121.51 47.6054 120.989 48.1125 120.298 48.5362L119.711 48.8958L116.693 43.9715C116.24 44.274 115.968 44.6781 115.878 45.1839C115.788 45.6897 115.888 46.179 116.178 46.6519C116.473 47.1339 116.795 47.4244 117.144 47.5235C117.492 47.6227 117.83 47.6533 118.157 47.6154L118.282 49.472C117.967 49.4896 117.594 49.4621 117.161 49.3894C116.744 49.3202 116.312 49.1468 115.867 48.8694C115.43 48.5863 115.023 48.1356 114.644 47.5172ZM117.983 43.1991L119.923 46.3637C120.292 46.0876 120.508 45.7361 120.572 45.3093C120.641 44.8915 120.539 44.4598 120.266 44.0142C119.981 43.5504 119.637 43.2546 119.234 43.1267C118.83 42.9989 118.413 43.023 117.983 43.1991Z" fill="black"/>
<path d="M120.337 60.1787C120.183 59.5687 120.187 58.9568 120.35 58.3431C120.527 57.7371 120.869 57.1991 121.377 56.729C121.885 56.2589 122.557 55.9176 123.395 55.705L123.643 55.642C124.48 55.4295 125.234 55.4086 125.905 55.5796C126.576 55.7505 127.128 56.0615 127.562 56.5127C128.006 56.9613 128.306 57.4957 128.464 58.116C128.582 58.5813 128.623 58.9834 128.588 59.3225C128.566 59.6692 128.498 59.9618 128.382 60.2002C128.266 60.4386 128.129 60.6332 127.969 60.7838L128.04 61.0629L132.087 60.0355L132.583 61.9896L121.728 64.745L121.24 62.822L122.17 62.5858L122.099 62.3067C121.765 62.2044 121.432 61.9973 121.1 61.6855C120.77 61.384 120.516 60.8817 120.337 60.1787ZM122.193 60.335C122.345 60.9347 122.664 61.3875 123.149 61.6937C123.644 61.9971 124.264 62.0544 125.008 61.8655L125.163 61.8261C125.907 61.6372 126.42 61.2925 126.7 60.7922C126.993 60.2996 127.062 59.7483 126.907 59.1383C126.755 58.5387 126.432 58.0871 125.936 57.7836C125.451 57.4775 124.837 57.4189 124.092 57.6079L123.937 57.6472C123.193 57.8362 122.675 58.1821 122.385 58.6851C122.105 59.1854 122.041 59.7353 122.193 60.335Z" fill="black"/>
<path d="M71.6248 23.8719C71.1024 23.8871 70.6712 23.7396 70.3314 23.4294C70.0019 23.1082 69.8292 22.6757 69.8133 22.132L69.6827 17.6539L67.6995 17.7117L67.651 16.0484L69.6341 15.9906L69.5623 13.5276L71.5774 13.4688L71.6493 15.9318L73.8244 15.8683L73.8729 17.5316L71.6978 17.5951L71.8182 21.7213C71.8275 22.0412 71.9815 22.1968 72.28 22.1881L73.8154 22.1433L73.8639 23.8066L71.6248 23.8719Z" fill="black"/>
<defs>
<filter id="filter0_b_309_25" x="-20" y="-20" width="185" height="185" filterUnits="userSpaceOnUse" color-interpolation-filters="sRGB">
<feFlood flood-opacity="0" result="BackgroundImageFix"/>
<feGaussianBlur in="BackgroundImageFix" stdDeviation="10"/>
<feComposite in2="SourceAlpha" operator="in" result="effect1_backgroundBlur_309_25"/>
<feBlend mode="normal" in="SourceGraphic" in2="effect1_backgroundBlur_309_25" result="shape"/>
</filter>
</defs>
</svg>
