<svg width="64" height="64" viewBox="0 0 64 64" fill="none" xmlns="http://www.w3.org/2000/svg">
<circle cx="32" cy="32" r="20" fill="white"/>
<path d="M32 0.333374C49.4534 0.333374 63.6667 14.5398 63.6667 32.0184C63.6667 49.4602 49.4534 63.6667 32 63.6667C14.5467 63.6667 0.333374 49.4602 0.333374 32.0184C0.333374 14.5398 14.5467 0.333374 32 0.333374ZM28.3932 19.4281C27.7208 19.4281 27.0789 19.5808 26.4675 19.8864C25.7034 20.3141 25.0921 20.9862 24.7558 21.7806C24.5419 22.3305 24.2056 23.9803 24.2056 24.0108C23.8694 25.8134 23.686 28.7463 23.686 31.9848C23.686 35.0735 23.8694 37.8812 24.1445 39.7143C24.1751 39.7449 24.5113 41.7918 24.8781 42.4945C25.5506 43.7777 26.8649 44.572 28.271 44.572H28.3932C29.3102 44.5414 31.2359 43.7471 31.2359 43.7166C34.4759 42.3723 40.8643 38.1867 43.4318 35.4065L43.6152 35.2232C43.9515 34.8872 44.3794 34.3678 44.4711 34.2456C44.9601 33.604 45.2047 32.8097 45.2047 32.0184C45.2047 31.1293 44.9296 30.3044 44.4099 29.6323C44.2877 29.5101 43.8292 28.9907 43.4013 28.563C40.8948 25.8745 34.3536 21.475 30.9302 20.1308C30.4106 19.92 29.0962 19.4586 28.3932 19.4281Z" fill="black"/>
</svg>
