<svg width="110" height="32" viewBox="0 0 110 32" fill="none" xmlns="http://www.w3.org/2000/svg">
<path d="M16.7624 7.595C16.2047 6.52033 15.4301 5.71433 14.4386 5.177C13.4471 4.619 12.3007 4.34 10.9993 4.34C9.57407 4.34 8.30373 4.66033 7.1883 5.301C6.07287 5.94167 5.19499 6.851 4.55466 8.029C3.93497 9.207 3.62513 10.571 3.62513 12.121C3.62513 13.671 3.93497 15.0453 4.55466 16.244C5.19499 17.422 6.07287 18.3313 7.1883 18.972C8.30373 19.6127 9.57407 19.933 10.9993 19.933C12.9203 19.933 14.4799 19.3957 15.6779 18.321C16.876 17.2463 17.6093 15.7893 17.8778 13.95H9.79096V11.129H21.6579V13.888C21.4306 15.562 20.8316 17.1017 19.8608 18.507C18.9106 19.9123 17.6609 21.0387 16.1117 21.886C14.5832 22.7127 12.879 23.126 10.9993 23.126C8.97505 23.126 7.12633 22.661 5.45319 21.731C3.78005 20.7803 2.44774 19.468 1.45625 17.794C0.485417 16.12 0 14.229 0 12.121C0 10.013 0.485417 8.122 1.45625 6.448C2.44774 4.774 3.78005 3.472 5.45319 2.542C7.14699 1.59133 8.9957 1.116 10.9993 1.116C13.2922 1.116 15.3268 1.68433 17.1032 2.821C18.9003 3.937 20.2016 5.52833 21.0072 7.595H16.7624Z" fill="white"/>
<path d="M32.5468 23.219C30.9356 23.219 29.4794 22.8573 28.1781 22.134C26.8767 21.39 25.8543 20.3567 25.1106 19.034C24.367 17.6907 23.9952 16.1407 23.9952 14.384C23.9952 12.648 24.3773 11.1083 25.1416 9.765C25.9059 8.42167 26.949 7.38833 28.271 6.665C29.593 5.94167 31.0699 5.58 32.7017 5.58C34.3336 5.58 35.8105 5.94167 37.1324 6.665C38.4544 7.38833 39.4976 8.42167 40.2618 9.765C41.0261 11.1083 41.4082 12.648 41.4082 14.384C41.4082 16.12 41.0158 17.6597 40.2309 19.003C39.4459 20.3463 38.3718 21.39 37.0085 22.134C35.6659 22.8573 34.1786 23.219 32.5468 23.219ZM32.5468 20.15C33.4557 20.15 34.3026 19.933 35.0875 19.499C35.8931 19.065 36.5438 18.414 37.0395 17.546C37.5352 16.678 37.7831 15.624 37.7831 14.384C37.7831 13.144 37.5456 12.1003 37.0705 11.253C36.5954 10.385 35.9654 9.734 35.1805 9.3C34.3955 8.866 33.5486 8.649 32.6398 8.649C31.7309 8.649 30.884 8.866 30.0991 9.3C29.3348 9.734 28.7254 10.385 28.271 11.253C27.8166 12.1003 27.5894 13.144 27.5894 14.384C27.5894 16.2233 28.0541 17.6493 28.9836 18.662C29.9338 19.654 31.1215 20.15 32.5468 20.15Z" fill="white"/>
<path d="M52.3052 23.219C50.694 23.219 49.2378 22.8573 47.9364 22.134C46.6351 21.39 45.6126 20.3567 44.869 19.034C44.1254 17.6907 43.7536 16.1407 43.7536 14.384C43.7536 12.648 44.1357 11.1083 44.9 9.765C45.6643 8.42167 46.7074 7.38833 48.0294 6.665C49.3514 5.94167 50.8283 5.58 52.4601 5.58C54.0919 5.58 55.5688 5.94167 56.8908 6.665C58.2128 7.38833 59.2559 8.42167 60.0202 9.765C60.7845 11.1083 61.1666 12.648 61.1666 14.384C61.1666 16.12 60.7742 17.6597 59.9892 19.003C59.2043 20.3463 58.1302 21.39 56.7669 22.134C55.4243 22.8573 53.937 23.219 52.3052 23.219ZM52.3052 20.15C53.2141 20.15 54.061 19.933 54.8459 19.499C55.6515 19.065 56.3021 18.414 56.7979 17.546C57.2936 16.678 57.5415 15.624 57.5415 14.384C57.5415 13.144 57.3039 12.1003 56.8289 11.253C56.3538 10.385 55.7238 9.734 54.9388 9.3C54.1539 8.866 53.307 8.649 52.3981 8.649C51.4893 8.649 50.6424 8.866 49.8574 9.3C49.0932 9.734 48.4838 10.385 48.0294 11.253C47.575 12.1003 47.3477 13.144 47.3477 14.384C47.3477 16.2233 47.8125 17.6493 48.742 18.662C49.6922 19.654 50.8799 20.15 52.3052 20.15Z" fill="white"/>
<path d="M71.5368 5.58C72.8588 5.58 74.0259 5.84867 75.038 6.386C76.0708 6.90267 76.8764 7.55367 77.4548 8.339V5.859H81.018V23.219C81.018 24.7897 80.6875 26.1847 80.0265 27.404C79.3655 28.644 78.405 29.6153 77.145 30.318C75.9056 31.0207 74.4184 31.372 72.6833 31.372C70.3698 31.372 68.4488 30.8243 66.9202 29.729C65.3917 28.6543 64.5241 27.187 64.3176 25.327H67.8188C68.0873 26.2157 68.6553 26.9287 69.5229 27.466C70.4111 28.024 71.4645 28.303 72.6833 28.303C74.1085 28.303 75.2549 27.869 76.1225 27.001C77.0107 26.133 77.4548 24.8723 77.4548 23.219V20.367C76.8558 21.173 76.0399 21.855 75.0071 22.413C73.9949 22.9503 72.8382 23.219 71.5368 23.219C70.0496 23.219 68.6863 22.847 67.447 22.103C66.2282 21.3383 65.2574 20.2843 64.5344 18.941C63.8321 17.577 63.481 16.0373 63.481 14.322C63.481 12.6067 63.8321 11.0877 64.5344 9.765C65.2574 8.44233 66.2282 7.41933 67.447 6.696C68.6863 5.952 70.0496 5.58 71.5368 5.58ZM77.4548 14.384C77.4548 13.206 77.2069 12.183 76.7112 11.315C76.2361 10.447 75.6061 9.78567 74.8212 9.331C74.0362 8.87633 73.1893 8.649 72.2805 8.649C71.3716 8.649 70.5247 8.87633 69.7398 9.331C68.9548 9.765 68.3145 10.416 67.8188 11.284C67.3437 12.1313 67.1061 13.144 67.1061 14.322C67.1061 15.5 67.3437 16.5333 67.8188 17.422C68.3145 18.3107 68.9548 18.9927 69.7398 19.468C70.5454 19.9227 71.3923 20.15 72.2805 20.15C73.1893 20.15 74.0362 19.9227 74.8212 19.468C75.6061 19.0133 76.2361 18.352 76.7112 17.484C77.2069 16.5953 77.4548 15.562 77.4548 14.384Z" fill="white"/>
<path d="M89.1895 0V22.94H85.6573V0H89.1895Z" fill="white"/>
<path d="M109.474 13.981C109.474 14.6217 109.433 15.2003 109.35 15.717H96.3057C96.409 17.081 96.915 18.1763 97.8239 19.003C98.7328 19.8297 99.8482 20.243 101.17 20.243C103.071 20.243 104.413 19.4473 105.198 17.856H109.009C108.493 19.4267 107.553 20.7183 106.19 21.731C104.847 22.723 103.174 23.219 101.17 23.219C99.5384 23.219 98.0718 22.8573 96.7704 22.134C95.4898 21.39 94.4776 20.3567 93.734 19.034C93.011 17.6907 92.6496 16.1407 92.6496 14.384C92.6496 12.6273 93.0007 11.0877 93.703 9.765C94.426 8.42167 95.4278 7.38833 96.7085 6.665C98.0098 5.94167 99.497 5.58 101.17 5.58C102.781 5.58 104.217 5.93133 105.477 6.634C106.737 7.33667 107.718 8.32867 108.42 9.61C109.123 10.8707 109.474 12.3277 109.474 13.981ZM105.787 12.865C105.766 11.563 105.301 10.5193 104.393 9.734C103.484 8.94867 102.358 8.556 101.015 8.556C99.7966 8.556 98.7534 8.94867 97.8859 9.734C97.0183 10.4987 96.5019 11.5423 96.3367 12.865H105.787Z" fill="white"/>
</svg>
